<?xml version="1.0" encoding="utf-8"?>
<svg xmlns="http://www.w3.org/2000/svg" xmlns:svg="http://www.w3.org/2000/svg" version="1.1" viewBox="0 0 1400 420">
	<title>The titlepage for the Standard Ebooks edition of Herland, by Charlotte Perkins Gilman</title>
	<g aria-label="HERLAND">
		<path d="m 474.92617,99.029239 h 24.88889 V 130 H 517.4057 V 52.807016 H 499.81506 V 83.590642 H 474.92617 V 52.807016 H 457.33552 V 130 h 17.59065 z"/>
		<path d="M 577.7712,52.807016 H 533.60746 V 130 H 577.7712 V 114.5614 H 551.1981 V 99.029239 h 25.45029 V 83.590642 H 551.1981 V 68.245613 h 26.5731 z"/>
		<path d="M 592.88377,52.807016 V 130 h 17.59064 V 99.497075 L 634.05336,130 h 22.36258 l -26.5731,-31.906433 c 9.45029,-2.994152 15.81286,-10.760234 15.81286,-22.362574 0,-15.157895 -10.8538,-22.923977 -25.16959,-22.923977 z m 17.59064,34.245615 V 66.842104 h 2.05848 c 6.64328,0 14.5965,0.467836 14.5965,10.105263 0,9.637428 -7.95322,10.105264 -14.5965,10.105264 z"/>
		<path d="M 682.54314,52.807016 H 664.9525 V 130 h 44.16374 v -15.4386 h -26.5731 z"/>
		<path d="m 763.43348,52.807016 h -16.2807 L 715.99488,130 h 18.90059 l 5.7076,-15.4386 h 29.38012 L 775.69079,130 h 18.90059 z m 0.5614,46.31579 h -17.4035 l 8.60818,-22.45614 h 0.18714 z"/>
		<path d="m 820.10161,82.093566 h 0.18714 L 850.9788,130 h 17.59065 V 52.807016 H 850.9788 v 47.906434 h -0.18713 L 820.10161,52.807016 H 802.51097 V 130 h 17.59064 z"/>
		<path d="M 884.81361,52.807016 V 130 h 22.36257 c 21.23977,0 38.92398,-16.09357 38.92398,-38.643276 0,-22.45614 -17.77778,-38.549708 -38.92398,-38.549708 z M 902.40425,114.2807 V 68.526315 h 2.71345 c 13.09942,0 21.98831,10.011696 21.98831,22.923977 -0.0936,12.912278 -8.98246,22.830408 -21.98831,22.830408 z"/>
	</g>
	<g aria-label="CHARLOTTE">
		<path d="m 497.08991,278.07018 c -13.26315,0 -19.08772,-9.26316 -19.08772,-17.05264 0,-7.71929 5.82457,-16.98245 19.08772,-16.98245 6.73685,0 11.36842,3.57895 11.36842,3.57895 l 5.61404,-11.22807 c 0,0 -6.45614,-5.33334 -19.01754,-5.33334 -16.42106,0 -31.36842,13.47369 -31.36842,30.10527 0,16.5614 15.01754,29.89473 31.36842,29.89473 12.5614,0 19.01754,-5.33333 19.01754,-5.33333 l -5.61404,-11.22807 c 0,0 -4.63157,3.57895 -11.36842,3.57895 z"/>
		<path d="m 537.38158,266.77193 h 18.66667 V 290 h 13.19298 v -57.89474 h -13.19298 v 23.08772 H 537.38158 V 232.10526 H 524.1886 V 290 h 13.19298 z"/>
		<path d="M 612.04605,232.10526 H 599.83553 L 576.46711,290 h 14.17544 l 4.2807,-11.57895 h 22.03509 L 621.23904,290 h 14.17544 z m 0.42106,34.73685 H 599.41448 L 605.87062,250 h 0.14035 z"/>
		<path d="M 642.60417,232.10526 V 290 h 13.19298 V 267.12281 L 673.48136,290 h 16.77193 l -19.92982,-23.92982 c 7.08772,-2.24562 11.85965,-8.07018 11.85965,-16.77193 0,-11.36842 -8.14035,-17.19299 -18.8772,-17.19299 z m 13.19298,25.68421 v -15.15789 h 1.54386 c 4.98246,0 10.94737,0.35088 10.94737,7.57895 0,7.22807 -5.96491,7.57894 -10.94737,7.57894 z"/>
		<path d="M 711.09868,232.10526 H 697.9057 V 290 h 33.12281 v -11.57895 h -19.92983 z"/>
		<path d="m 739.91996,261.01754 c 0,16.91228 12.07017,30.03509 29.19298,30.03509 16.63158,0 29.12281,-13.12281 29.12281,-30.03509 0,-16.91228 -13.05264,-29.96491 -29.12281,-29.96491 -15.92983,0 -29.19298,13.05263 -29.19298,29.96491 z m 14.24561,0 c 0,-8.63157 4.77193,-17.26315 14.94737,-17.26315 10.24561,0 14.87719,8.63158 14.87719,17.26315 0,8.63158 -4.35088,17.26316 -14.87719,17.26316 -10.80702,0 -14.94737,-8.63158 -14.94737,-17.26316 z"/>
		<path d="m 803.21492,243.68421 h 13.75439 V 290 h 13.19298 v -46.31579 h 13.75438 v -11.57895 h -40.70175 z"/>
		<path d="m 850.97807,243.68421 h 13.75439 V 290 h 13.19298 v -46.31579 h 13.75439 v -11.57895 h -40.70176 z"/>
		<path d="m 934.55371,232.10526 h -33.1228 V 290 h 33.1228 v -11.57895 h -19.92982 v -11.64912 h 19.08772 v -11.57895 h -19.08772 v -11.50877 h 19.92982 z"/>
	</g>
	<g aria-label="PERKINS GILMAN">
		<path d="M 353.59101,312.10526 V 370 h 13.19298 v -21.47368 h 7.92983 c 11.29824,0 19.78947,-6.66667 19.78947,-18.5965 0,-11.99999 -8.49123,-17.82456 -19.78947,-17.82456 z M 366.78399,338 v -15.36842 h 3.7193 c 5.19298,0 10.10527,1.75439 10.10527,7.7193 0,5.89473 -4.91229,7.64912 -10.10527,7.64912 z"/>
		<path d="M 438.45176,312.10526 H 405.32895 V 370 h 33.12281 v -11.57895 h -19.92983 v -11.64912 h 19.08772 v -11.57895 h -19.08772 v -11.50877 h 19.92983 z"/>
		<path d="M 451.03619,312.10526 V 370 h 13.19298 V 347.12281 L 481.91338,370 h 16.77193 l -19.92983,-23.92982 c 7.08772,-2.24562 11.85965,-8.07018 11.85965,-16.77193 0,-11.36842 -8.14035,-17.19299 -18.87719,-17.19299 z m 13.19298,25.68421 v -15.15789 h 1.54386 c 4.98245,0 10.94737,0.35088 10.94737,7.57895 0,7.22807 -5.96492,7.57894 -10.94737,7.57894 z"/>
		<path d="m 559.03947,370 -26.94737,-30.45614 23.29825,-27.4386 h -16 L 519.5307,335.75439 V 312.10526 H 506.33772 V 370 H 519.5307 V 345.4386 L 540.86403,370 Z"/>
		<path d="M 579.76645,312.10526 H 566.57346 V 370 h 13.19299 z"/>
		<path d="m 606.42215,334.07018 h 0.14035 L 629.58004,370 h 13.19298 v -57.89474 h -13.19298 v 35.92983 h -0.14035 L 606.42215,312.10526 H 593.22916 V 370 h 13.19299 z"/>
		<path d="m 676.16885,311.05263 c -9.33333,0 -18.87719,6.8772 -18.87719,17.68421 0,6.03509 4.07017,11.4386 11.01754,14.8772 6.8772,3.43859 13.05263,5.33333 13.05263,9.54385 0,5.40351 -5.47368,5.68422 -8.35087,5.68422 -6.45614,0 -14.17544,-6.52632 -14.17544,-6.52632 l -6.59649,11.08772 c 0,0 8.21052,7.64912 21.75438,7.64912 11.29825,0 21.82456,-4.8421 21.82456,-18.66666 0,-7.57895 -7.08771,-13.05264 -13.54386,-15.78948 -6.59649,-2.80702 -12.07017,-5.12281 -12.07017,-8.35088 0,-3.15789 2.38596,-5.19298 6.87719,-5.19298 5.96491,0 11.7193,4 11.7193,4 l 5.33333,-10.52631 c 0,0 -7.43859,-5.47369 -17.96491,-5.47369 z"/>
		<path d="m 783.52413,337.57895 h -26.73684 v 10.17544 h 13.33333 c 0,7.08772 -6.24561,11.15789 -12.5614,11.15789 -8.14035,0 -14.73684,-8 -14.73684,-17.82456 0,-10.03509 6.59649,-18.10526 14.73684,-18.10526 5.12281,0 9.54386,2.03508 12.91228,7.43859 l 8.63158,-9.47368 c -5.05263,-6.10526 -12.14035,-9.89474 -22.31579,-9.89474 -16.2807,0 -28.21052,13.40351 -28.21052,30.03509 0,16.5614 12.63157,29.96491 28.21052,29.96491 11.36842,0 23.57895,-6.24561 26.73684,-20.91228 z"/>
		<path d="M 807.48025,312.10526 H 794.28727 V 370 h 13.19298 z"/>
		<path d="M 834.13595,312.10526 H 820.94297 V 370 h 33.12281 v -11.57895 h -19.92983 z"/>
		<path d="m 913.41337,370 h 13.19298 l -5.19298,-57.89474 h -14.03509 l -12.8421,33.40351 -12.84211,-33.40351 H 867.65898 L 862.466,370 h 13.19298 l 2.73684,-34.31579 h 0.35088 l 11.85965,33.96491 h 7.85965 l 11.85965,-33.96491 h 0.35088 z"/>
		<path d="M 966.29494,312.10526 H 954.08441 L 930.71599,370 h 14.17544 l 4.2807,-11.57895 h 22.03509 L 975.48792,370 h 14.17544 z m 0.42105,34.73685 H 953.66336 L 960.1195,330 h 0.14035 z"/>
		<path d="m 1010.046,334.07018 h 0.1404 L 1033.2039,370 h 13.193 v -57.89474 h -13.193 v 35.92983 h -0.1403 L 1010.046,312.10526 H 996.85304 V 370 h 13.19296 z"/>
	</g>
</svg>
